<?xml version="1.0" encoding="UTF-8" standalone="no"?>
<!-- Created with Inkscape (http://www.inkscape.org/) -->

<svg
   width="100.00001mm"
   height="100.00001mm"
   viewBox="0 0 100.00001 100.00001"
   version="1.1"
   id="svg5"
   xml:space="preserve"
   xmlns="http://www.w3.org/2000/svg"
   xmlns:svg="http://www.w3.org/2000/svg"><defs
     id="defs2" /><g
     id="g13845"><path
       style="color:#000000;fill:#000000;stroke-linecap:round;stroke-linejoin:round;-inkscape-stroke:none;paint-order:markers stroke fill"
       d="M 50,0 C 22.430762,2.9834866e-7 2.9834868e-7,22.430762 0,50 0,77.569238 22.430762,100 50,100 77.569238,100 100,77.569238 100,50 100,22.430762 77.569238,0 50,0 Z m 0,7.59375 C 73.465194,7.59375 92.40625,26.534806 92.40625,50 92.40625,73.465194 73.465194,92.40625 50,92.40625 26.534806,92.40625 7.59375,73.465194 7.59375,50 7.5937503,26.534806 26.534806,7.5937503 50,7.59375 Z"
       id="circle2837" /><path
       id="path2839"
       style="color:#000000;fill:#000000;stroke-width:0.929756;stroke-linecap:round;-inkscape-stroke:none"
       d="m 29.758444,21.898408 34.567378,59.874338 c 0.555141,0.960418 1.468895,1.661181 2.540493,1.948009 1.07144,0.287248 2.213171,0.137559 3.174146,-0.41677 2.001922,-1.155251 2.68743,-3.714899 1.531333,-5.716347 L 37.004317,17.715 33.381379,19.806704 Z" /><path
       id="path3627"
       style="color:#000000;fill:#000000;stroke-width:1.9183;stroke-linecap:round;-inkscape-stroke:none"
       d="m 27.014067,26.404815 14.950042,-8.631421 -0.0025,-0.0028 -11.790743,-3.159345 -3.159301,11.790767 z" /><path
       style="color:#000000;fill:#000000;stroke-width:0.929756;stroke-linecap:round;-inkscape-stroke:none"
       d="M 39.334691,86.310778 C 37.137742,85.592591 35.93936,83.229026 36.658422,81.032361 l 9.585531,-31.540687 5.276789,-2.675454 2.675453,5.276791 -9.584714,31.542313 c -1.000278,2.14767 -3.166747,3.329559 -5.27679,2.675454 z"
       id="path3571" /></g></svg>
